<svg width="4407" height="2482" xmlns="http://www.w3.org/2000/svg" xmlns:xlink="http://www.w3.org/1999/xlink" xml:space="preserve" overflow="hidden"><g transform="translate(3 3)"><path d="M0.499836 43.0466C0.499836 19.5487 19.5487 0.499836 43.0466 0.499836L4357.95 0.499836C4381.45 0.499836 4400.5 19.5487 4400.5 43.0466L4400.5 2432.95C4400.5 2456.45 4381.45 2475.5 4357.95 2475.5L43.0466 2475.5C19.5487 2475.5 0.499836 2456.45 0.499836 2432.95Z" stroke="#042433" stroke-width="6.875" stroke-miterlimit="8" fill-rule="evenodd"/><path d="M495 187.442C495 134.731 537.731 92.0001 590.442 92.0001L4209.56 92.0001C4262.27 92.0001 4305 134.731 4305 187.442L4305 2287.56C4305 2340.27 4262.27 2383 4209.56 2383L590.442 2383C537.731 2383 495 2340.27 495 2287.56Z" fill="#F2F2F2" fill-rule="evenodd"/><path d="M565 548.19C565 525.441 583.441 507 606.19 507L1696.81 507C1719.56 507 1738 525.441 1738 548.19L1738 1280.81C1738 1303.56 1719.56 1322 1696.81 1322L606.19 1322C583.441 1322 565 1303.56 565 1280.81Z" fill="#FFFFFF" fill-rule="evenodd"/><path d="M1808 548.19C1808 525.441 1826.44 507 1849.19 507L2939.81 507C2962.56 507 2981 525.441 2981 548.19L2981 1280.81C2981 1303.56 2962.56 1322 2939.81 1322L1849.19 1322C1826.44 1322 1808 1303.56 1808 1280.81Z" fill="#FFFFFF" fill-rule="evenodd"/><path d="M3076 548.19C3076 525.441 3094.44 507 3117.19 507L4207.81 507C4230.56 507 4249 525.441 4249 548.19L4249 1280.81C4249 1303.56 4230.56 1322 4207.81 1322L3117.19 1322C3094.44 1322 3076 1303.56 3076 1280.81Z" fill="#FFFFFF" fill-rule="evenodd"/><path d="M565 1438.38C565 1413.32 585.32 1393 610.385 1393L2334.62 1393C2359.68 1393 2380 1413.32 2380 1438.38L2380 2245.62C2380 2270.68 2359.68 2291 2334.62 2291L610.385 2291C585.32 2291 565 2270.68 565 2245.62Z" fill="#FFFFFF" fill-rule="evenodd"/><path d="M2430 1438.39C2430 1413.32 2450.32 1393 2475.39 1393L4203.61 1393C4228.68 1393 4249 1413.32 4249 1438.39L4249 2245.61C4249 2270.68 4228.68 2291 4203.61 2291L2475.39 2291C2450.32 2291 2430 2270.68 2430 2245.61Z" fill="#FFFFFF" fill-rule="evenodd"/><path d="M565 196.788C565 189.725 570.725 184 577.788 184L4236.21 184C4243.27 184 4249 189.725 4249 196.788L4249 424.212C4249 431.275 4243.27 437 4236.21 437L577.788 437C570.725 437 565 431.275 565 424.212Z" fill="#FFFFFF" fill-rule="evenodd"/></g></svg>