<svg width="1280" height="720" xmlns="http://www.w3.org/2000/svg" xmlns:xlink="http://www.w3.org/1999/xlink" overflow="hidden"><defs><clipPath id="clip0"><rect x="0" y="0" width="1280" height="720"/></clipPath></defs><g clip-path="url(#clip0)"><rect x="0" y="0" width="1280" height="720" fill="#FFFFFF"/><path d="M0 12.3773C0 5.54148 5.54148-5.09253e-15 12.3773-5.09253e-15L1267.62 0C1274.46-2.54627e-15 1280 5.54148 1280 12.3773L1280 707.623C1280 714.458 1274.46 720 1267.62 720L12.3773 720C5.54148 720 0 714.458 0 707.623Z" stroke="#042433" stroke-width="2" stroke-miterlimit="8" fill="#E1306C" fill-rule="evenodd"/><path d="M144 54.7461C144 39.4223 156.422 27 171.746 27L1224.25 27C1239.58 27 1252 39.4223 1252 54.7461L1252 665.254C1252 680.578 1239.58 693 1224.25 693L171.746 693C156.422 693 144 680.578 144 665.254Z" fill="#F2F2F2" fill-rule="evenodd"/><path d="M164 161.494C164 154.042 170.042 148 177.494 148L492.506 148C499.958 148 506 154.042 506 161.494L506 401.506C506 408.958 499.958 415 492.506 415L177.494 415C170.042 415 164 408.958 164 401.506Z" fill="#FFFFFF" fill-rule="evenodd"/><path d="M526 161.494C526 154.042 532.042 148 539.494 148L853.506 148C860.958 148 867 154.042 867 161.494L867 401.506C867 408.958 860.958 415 853.506 415L539.494 415C532.042 415 526 408.958 526 401.506Z" fill="#FFFFFF" fill-rule="evenodd"/><path d="M895 161.494C895 154.042 901.042 148 908.494 148L1222.51 148C1229.96 148 1236 154.042 1236 161.494L1236 401.506C1236 408.958 1229.96 415 1222.51 415L908.494 415C901.042 415 895 408.958 895 401.506Z" fill="#FFFFFF" fill-rule="evenodd"/><path d="M164 440.978C164 434.363 169.363 429 175.978 429L680.022 429C686.637 429 692 434.363 692 440.978L692 654.022C692 660.637 686.637 666 680.022 666L175.978 666C169.363 666 164 660.637 164 654.022Z" fill="#FFFFFF" fill-rule="evenodd"/><path d="M707 440.978C707 434.363 712.363 429 718.978 429L1224.02 429C1230.64 429 1236 434.363 1236 440.978L1236 654.022C1236 660.637 1230.64 666 1224.02 666L718.978 666C712.363 666 707 660.637 707 654.022Z" fill="#FFFFFF" fill-rule="evenodd"/><path d="M164 57.6894C164 55.6518 165.652 54 167.689 54L1232.31 54C1234.35 54 1236 55.6518 1236 57.6894L1236 123.311C1236 125.348 1234.35 127 1232.31 127L167.689 127C165.652 127 164 125.348 164 123.311Z" fill="#FFFFFF" fill-rule="evenodd"/></g></svg>